<svg width="406" height="400" viewBox="0 0 406 400" fill="none" xmlns="http://www.w3.org/2000/svg">
<g id="Desktop - 1" clip-path="url(#clip0)">
<path id="a." d="M46.95 195.7C46.95 176.333 50.9167 159.183 58.85 144.25C67.0167 129.317 77.9833 117.767 91.75 109.6C105.75 101.2 121.15 97 137.95 97C153.117 97 166.3 100.033 177.5 106.1C188.933 111.933 198.033 119.283 204.8 128.15V100.15H245.05V293H204.8V264.3C198.033 273.4 188.817 280.983 177.15 287.05C165.483 293.117 152.183 296.15 137.25 296.15C120.683 296.15 105.517 291.95 91.75 283.55C77.9833 274.917 67.0167 263.017 58.85 247.85C50.9167 232.45 46.95 215.067 46.95 195.7ZM204.8 196.4C204.8 183.1 202 171.55 196.4 161.75C191.033 151.95 183.917 144.483 175.05 139.35C166.183 134.217 156.617 131.65 146.35 131.65C136.083 131.65 126.517 134.217 117.65 139.35C108.783 144.25 101.55 151.6 95.95 161.4C90.5833 170.967 87.9 182.4 87.9 195.7C87.9 209 90.5833 220.667 95.95 230.7C101.55 240.733 108.783 248.433 117.65 253.8C126.75 258.933 136.317 261.5 146.35 261.5C156.617 261.5 166.183 258.933 175.05 253.8C183.917 248.667 191.033 241.2 196.4 231.4C202 221.367 204.8 209.7 204.8 196.4ZM313.557 295.45C306.324 295.45 300.257 293 295.357 288.1C290.457 283.2 288.007 277.133 288.007 269.9C288.007 262.667 290.457 256.6 295.357 251.7C300.257 246.8 306.324 244.35 313.557 244.35C320.557 244.35 326.507 246.8 331.407 251.7C336.307 256.6 338.757 262.667 338.757 269.9C338.757 277.133 336.307 283.2 331.407 288.1C326.507 293 320.557 295.45 313.557 295.45Z" fill="black"/>
</g>
<defs>
<clipPath id="clip0">
<rect width="406" height="400" fill="white"/>
</clipPath>
</defs>
</svg>
